PathFileType	4	(X/Y/Z)	D:\TRACE\v60_Jaco2_6-2-23\JustBodyDRS_Motion3_8-platform.trc
DataRate	CameraRate	NumFrames	NumMarkers	Units	OrigDataRate	OrigDataStartFrame	OrigNumFrames
100.00	100.00	      61	5	mm	100.00	1751	      7000
Frame#	Time	Left_Front			Right_Front			Left_Aft			Right_Aft			Post			
		X1	Y1	Z1	X2	Y2	Z2	X3	Y3	Z3	X4	Y4	Z4	X5	Y5	Z5	

1751	17.500	-804.60309	7.41592	-651.56445	765.69611	5.64155	-628.97888	-736.00977	12.49485	481.98083	677.96478	10.88382	588.16406	-8.97032	1303.78101	-969.56598	
1752	17.510	-804.58881	7.48747	-651.47137	765.66327	5.73227	-628.95361	-736.08185	12.33025	482.22647	677.97211	10.81556	588.16003	-9.01213	1303.94067	-969.41803	
1753	17.520	-804.55963	7.51894	-651.41614	765.69434	5.87500	-628.86438	-736.15771	12.30803	482.35651	678.00659	10.75497	588.16998	-8.94029	1304.15466	-969.29773	
1754	17.530	-804.84302	7.92804	-651.94830	765.87732	6.09294	-628.71497	-736.17303	12.27012	482.33939	678.43500	10.54979	587.97235	-8.64320	1304.49585	-969.08307	
1755	17.540	-804.89209	8.08568	-651.89050	765.87146	6.24706	-628.64429	-736.22284	12.26633	482.34729	678.36774	10.38973	587.90338	-8.78551	1304.70691	-968.91180	
1756	17.550	-804.90649	8.18144	-651.77618	765.83221	6.32688	-628.55206	-736.28766	12.10290	482.36908	678.67743	10.09161	587.83679	-8.97282	1304.89636	-968.41895	
1757	17.560	-804.95831	8.30200	-651.75824	765.65027	6.44106	-628.52032	-736.27234	11.94893	482.42203	678.63800	10.01435	587.86755	-9.02761	1305.01306	-967.94440	
1758	17.570	-805.02313	8.46986	-651.65967	765.55896	6.49271	-628.59290	-736.25092	11.86617	482.47562	678.67371	9.96468	587.95673	-9.02393	1305.25110	-967.44067	
1759	17.580	-805.07806	8.74069	-651.57513	765.52216	6.68258	-628.50708	-736.19916	11.72292	482.49380	678.60480	9.83216	587.99054	-9.06980	1305.55420	-967.03259	
1760	17.590	-805.04327	8.86938	-651.57727	765.54022	6.78753	-628.54584	-736.18103	11.68981	482.32333	678.55640	9.73641	587.97552	-9.18202	1305.68347	-966.69556	
1761	17.600	-805.03174	9.00744	-651.52698	765.52814	6.90615	-628.54700	-736.09784	11.48141	482.41571	678.44458	9.57715	588.00623	-9.28127	1305.86353	-966.39850	
1762	17.610	-805.07544	9.16993	-651.52570	765.47833	6.92555	-628.52655	-736.38538	11.61658	482.56442	678.45569	9.22925	587.88745	-9.34082	1306.00635	-965.95496	
1763	17.620	-805.05182	9.28951	-651.46655	765.43518	7.03080	-628.48584	-736.36475	11.48084	482.70544	678.21497	9.22930	588.19604	-9.15936	1306.16370	-965.59937	
1764	17.630	-805.03241	9.40707	-651.48395	765.48016	7.25914	-628.49512	-736.37512	11.38574	482.71890	678.22906	9.15906	588.24896	-8.94560	1306.44324	-965.31946	
1765	17.640	-805.00421	9.56765	-651.52228	765.50110	7.50823	-628.46063	-736.36365	11.33035	482.76859	678.19818	9.09824	588.24500	-8.98618	1306.66760	-965.19507	
1766	17.650	-805.01709	9.48360	-651.64917	765.49249	7.61618	-628.44489	-736.39258	11.26296	482.80634	678.17371	9.06715	588.21375	-8.96494	1306.80554	-965.04468	
1767	17.660	-804.93805	9.72850	-651.47534	765.48212	7.70964	-628.40375	-736.29199	10.96511	483.03168	678.12354	8.92877	588.29016	-9.02782	1306.83203	-964.97382	
1768	17.670	-805.01074	9.63961	-651.52686	765.47186	7.77464	-628.34558	-736.64240	11.51160	482.67587	678.08417	8.77686	588.32709	-9.10990	1306.94214	-964.84888	
1769	17.680	-804.98669	9.79186	-651.42969	765.40277	7.90498	-628.32953	-736.74860	11.48577	482.66968	678.01678	8.61914	588.32977	-9.16081	1307.11877	-964.66949	
1770	17.690	-805.02643	9.88855	-651.42645	765.54718	8.14993	-628.14471	-736.74585	11.44237	482.65631	677.94116	8.53765	588.35529	-9.24806	1307.29102	-964.54358	
1771	17.700	-805.07843	10.09693	-651.43188	765.51117	8.35439	-628.15637	-736.75323	11.40563	482.62296	677.88916	8.48531	588.35498	-9.18737	1307.43811	-964.29535	
1772	17.710	-805.00684	10.42707	-651.40466	765.49536	8.32824	-628.15381	-736.77448	11.40130	482.61746	677.82239	8.44098	588.41687	-9.25904	1307.81140	-963.88580	
1773	17.720	-805.15515	10.20569	-651.32861	765.46075	8.36115	-628.11096	-736.82129	11.24889	482.60590	677.83838	8.36947	588.49542	-9.35427	1307.99902	-963.53931	
1774	17.730	-805.23804	10.17892	-651.26611	765.41803	8.56607	-628.05627	-736.92194	11.18370	482.58853	677.82520	8.26774	588.52295	-9.49136	1308.15845	-963.17792	
1775	17.740	-805.32324	10.35688	-651.24182	765.25958	8.60177	-628.21075	-736.99023	10.98210	482.58545	677.85559	8.23618	588.51904	-9.48407	1308.26660	-962.79865	
1776	17.750	-805.25189	10.77154	-651.27234	765.23694	8.65724	-628.16010	-736.99420	10.99596	482.60165	677.81714	8.21538	588.57928	-9.58155	1308.48962	-962.54474	
1777	17.760	-805.32825	10.85844	-651.23883	765.16815	8.77498	-628.06946	-736.99768	11.10408	482.65350	677.75623	8.17858	588.62500	-9.51535	1308.70325	-962.36310	
1778	17.770	-805.37250	10.88937	-651.15131	765.06360	9.00247	-628.03198	-737.03430	11.00307	482.65741	677.78394	8.17276	588.65710	-9.53762	1308.77905	-962.05615	
1779	17.780	-805.37384	10.96346	-651.04669	764.97620	9.07563	-628.04224	-737.12396	10.75522	482.64944	677.68561	8.06055	588.61920	-9.54826	1308.79749	-961.82587	
1780	17.790	-805.46387	11.04535	-651.00946	764.94116	9.04322	-628.04291	-737.19861	10.63212	482.77585	677.53558	7.97417	588.58667	-9.50130	1308.88477	-961.72516	
1781	17.800	-805.50647	11.09661	-650.92603	764.86774	9.13312	-628.06128	-737.20575	10.60709	482.78000	677.50305	7.96063	588.71735	-9.60516	1308.89026	-961.68610	
1782	17.810	-805.56396	11.08698	-650.87738	764.80493	9.23386	-628.10223	-737.17883	10.61970	482.79599	677.47516	7.96370	588.74377	-9.60149	1308.96851	-961.64874	
1783	17.820	-805.69263	11.13445	-650.80646	764.80432	9.31929	-628.11896	-737.19257	10.64219	482.78717	677.48810	7.92843	588.77228	-9.70116	1309.04346	-961.75842	
1784	17.830	-805.63989	11.27475	-650.57855	764.79492	9.31295	-628.09991	-737.27509	10.51373	482.97302	677.31708	7.87546	588.74237	-9.78444	1309.10156	-961.81396	
1785	17.840	-805.84918	11.36140	-650.63452	764.64819	9.31922	-628.11993	-737.34912	10.31233	483.08603	677.14600	7.79091	588.76605	-9.99143	1309.11572	-961.86218	
1786	17.850	-806.00293	11.35094	-650.74103	764.60602	9.34037	-628.11438	-737.37823	10.29416	483.12292	677.02295	7.78181	588.79480	-10.03765	1309.11646	-961.79071	
1787	17.860	-806.08539	11.32700	-650.67914	764.56738	9.36976	-628.09515	-737.41156	10.27706	483.12033	677.12610	7.84272	588.84943	-9.98420	1309.14587	-961.55615	
1788	17.870	-806.27435	11.32170	-650.68262	764.50366	9.37029	-628.13416	-737.49481	10.25374	483.09732	677.01678	7.79624	588.84662	-10.02493	1309.19336	-961.42749	
1789	17.880	-806.36066	11.36553	-650.73108	764.42786	9.35037	-628.13135	-737.52478	10.27759	483.08942	676.90796	7.77161	588.75800	-10.13113	1309.19946	-961.31964	
1790	17.890	-806.43774	11.20510	-650.79401	764.34326	9.39702	-628.14111	-737.65436	10.30624	483.08188	676.76794	7.78953	588.69324	-10.22754	1309.15564	-961.27435	
1791	17.900	-806.52655	11.05397	-650.66467	764.23236	9.31820	-628.11401	-737.79401	10.25992	483.04950	676.69995	7.81466	588.71423	-10.44007	1309.10852	-961.17773	
1792	17.910	-806.59851	11.01094	-650.61053	764.17731	9.26685	-628.08685	-737.85980	10.31153	483.11682	676.61017	7.83236	588.75128	-10.55310	1309.06995	-961.18915	
1793	17.920	-806.66162	10.98056	-650.60547	764.13678	9.32489	-628.10620	-737.90570	10.31756	483.10907	676.56104	7.81357	588.69696	-10.56661	1309.06104	-961.26538	
1794	17.930	-806.83936	11.00775	-650.81213	764.02936	9.34254	-628.13019	-737.98639	10.32802	483.07193	676.40082	7.82311	588.63953	-10.90355	1309.05481	-961.47339	
1795	17.940	-807.02960	11.01562	-650.99994	763.90009	9.21854	-628.15509	-738.11792	10.39625	483.00916	676.24744	7.89302	588.55042	-10.95996	1309.06738	-961.64496	
1796	17.950	-807.07471	10.91066	-651.04303	763.78699	9.12249	-628.11780	-738.27405	10.48496	483.04282	676.05920	7.95825	588.62244	-11.01961	1308.99451	-961.67493	
1797	17.960	-807.06891	10.86534	-650.97369	763.61945	9.03770	-628.15405	-738.38031	10.50018	483.02106	676.00214	8.00373	588.61176	-10.99689	1308.86975	-961.78650	
1798	17.970	-807.14807	10.85171	-651.10565	763.53662	8.94622	-628.14197	-738.51648	10.61979	482.97137	675.93091	8.07331	588.61041	-11.09153	1308.69128	-961.92163	
1799	17.980	-807.27869	10.86355	-651.16833	763.45599	8.78877	-628.19354	-738.66040	10.80680	482.91428	675.85773	8.18889	588.55731	-11.33860	1308.42957	-962.21930	
1800	17.990	-807.40540	10.84740	-651.31268	763.36444	8.67378	-628.22064	-738.85828	11.01871	482.82590	675.81915	8.32092	588.48444	-11.39531	1308.19446	-962.57483	
1801	18.000	-807.48627	10.76565	-651.39081	763.24194	8.53249	-628.25952	-738.93732	11.10934	482.84164	675.77765	8.46961	588.44666	-11.54687	1307.88647	-962.95337	
1802	18.010	-807.62134	10.44596	-651.38586	763.05151	8.19329	-628.25403	-739.11621	11.21728	482.79431	675.67645	8.54369	588.38965	-11.86223	1307.60352	-963.33447	
1803	18.020	-807.83881	10.13147	-651.57269	762.91431	7.97241	-628.30750	-738.92798	11.18294	482.84451	675.56671	8.59470	588.33569	-11.96673	1307.36462	-963.81305	
1804	18.030	-808.08832	9.76037	-651.67493	762.77380	7.75798	-628.42627	-739.33362	11.41838	482.68497	675.30603	8.77282	588.36420	-12.00415	1307.19897	-964.21521	
1805	18.040	-808.14349	9.45611	-651.73358	762.66370	7.62835	-628.47723	-739.42126	11.61094	482.56134	675.15210	8.90627	588.42566	-11.97514	1306.85608	-964.74469	
1806	18.050	-808.31128	9.21509	-651.75983	762.52167	7.47070	-628.48792	-739.53973	11.82991	482.49469	675.00195	9.22851	588.10815	-12.17321	1306.36206	-965.48743	
1807	18.060	-808.35431	9.05498	-651.63660	762.40710	7.29892	-628.57025	-739.67706	11.99385	482.41699	674.89594	9.41109	588.10352	-12.53161	1306.13452	-966.22974	
1808	18.070	-808.52692	8.71380	-651.69983	762.19855	7.03751	-628.64502	-739.81873	12.13706	482.37390	674.82782	9.54637	588.15991	-12.58973	1305.75635	-966.81525	
1809	18.080	-808.50104	8.54210	-651.65326	762.01019	6.80289	-628.74792	-739.92572	12.26823	482.36948	674.78687	9.66195	588.07410	-12.65754	1305.40002	-967.31354	
1810	18.090	-808.60358	8.27678	-651.81696	761.89063	6.58440	-628.80750	-740.02460	12.39944	482.30811	674.58435	9.86669	587.99463	-12.81737	1305.14941	-967.84772	
1811	18.100	-808.60150	8.05003	-651.95953	761.77063	6.41385	-628.86261	-740.13910	12.52833	482.28311	674.45288	10.15943	587.99579	-12.96024	1304.72717	-968.36877	
